<svg width="256" height="256" viewBox="0 0 256 256" fill="none" xmlns="http://www.w3.org/2000/svg">
<g clip-path="url(#clip0_35_12724)">
<path d="M256 0H0V256H256V0Z" fill="url(#paint0_linear_35_12724)" stroke="black" stroke-width="0.235" stroke-miterlimit="10"/>
<path d="M174.469 57.9355L154.474 118.68C153.059 123.515 149.054 125.315 146.289 122.745L140.734 117.38L138.114 114.705L123.539 128.165C95.0943 159.08 124.259 188.245 124.259 188.245L79.1543 143.135C78.9993 142.985 78.8293 142.855 78.6793 142.7C78.5543 142.575 78.4493 142.435 78.3293 142.31L78.0193 142L78.0443 141.99C70.4543 133.58 71.0993 121.115 79.1993 112.98L107.594 84.0305L105.144 81.5305L99.6993 76.6355C96.9293 74.0655 97.9543 69.4405 101.539 68.3055L167.654 53.2955C171.239 52.1605 174.699 55.3705 174.479 57.9455L174.469 57.9355Z" fill="url(#paint1_linear_35_12724)"/>
<path d="M164.33 168.904C172.9 177.464 172.98 190.764 164.605 199.069C156.231 207.374 143.146 206.969 134.636 198.475L123.328 187.232C118.57 181.841 98.2072 155.698 123.54 128.165L123.541 128.164L164.33 168.904ZM78.3301 142.31C78.4501 142.435 78.5557 142.575 78.6807 142.7C78.8306 142.855 79.0004 142.985 79.1553 143.135L110.006 173.988L79.6699 143.83C79.0837 143.25 78.5382 142.641 78.0303 142.01L78.3301 142.31ZM78.0449 141.99L78.0215 141.999C77.9313 141.887 77.8417 141.774 77.7539 141.66C77.8497 141.771 77.9464 141.881 78.0449 141.99Z" fill="url(#paint2_linear_35_12724)"/>
</g>
<defs>
<linearGradient id="paint0_linear_35_12724" x1="128" y1="0" x2="128" y2="256" gradientUnits="userSpaceOnUse">
<stop stop-color="#FF1DBE"/>
<stop offset="0.13" stop-color="#DF1DBD"/>
<stop offset="0.3" stop-color="#BB1EBC"/>
<stop offset="0.48" stop-color="#9F1EBB"/>
<stop offset="0.65" stop-color="#8B1EBB"/>
<stop offset="0.83" stop-color="#7F1EBB"/>
<stop offset="1" stop-color="#7B1FBB"/>
</linearGradient>
<linearGradient id="paint1_linear_35_12724" x1="195.66" y1="85.4842" x2="59.3483" y2="155.867" gradientUnits="userSpaceOnUse">
<stop stop-color="white"/>
<stop offset="0.99" stop-color="#F1F1F1" stop-opacity="0.5"/>
</linearGradient>
<linearGradient id="paint2_linear_35_12724" x1="73.1331" y1="156.064" x2="170.735" y2="155.995" gradientUnits="userSpaceOnUse">
<stop stop-color="white" stop-opacity="0.1"/>
<stop offset="1" stop-color="#F1F1F1" stop-opacity="0.8"/>
</linearGradient>
<clipPath id="clip0_35_12724">
<rect width="256" height="256" rx="62.5" fill="white"/>
</clipPath>
</defs>
</svg>
